<svg xmlns="http://www.w3.org/2000/svg" version="1.1" xmlns:xlink="http://www.w3.org/1999/xlink" xmlns:svgjs="http://svgjs.dev/svgjs" width="2000" height="1500" viewBox="0 0 2000 1500"><rect width="2000" height="1500" fill="#ffffff"></rect><g transform="matrix(0.75,0,0,0.75,249.090909090909,556.6962965639666)"><svg viewBox="0 0 396 102" data-background-color="#046380" preserveAspectRatio="xMidYMid meet" height="515" width="2000" xmlns="http://www.w3.org/2000/svg" xmlns:xlink="http://www.w3.org/1999/xlink"><g id="tight-bounds" transform="matrix(1,0,0,1,0.2400000000000091,0.04719158699134596)"><svg viewBox="0 0 395.52 101.90561682601732" height="101.90561682601732" width="395.52"><g><svg viewBox="0 0 552.4998273408 142.35142521599994" height="101.90561682601732" width="395.52"><g transform="matrix(1,0,0,1,156.97982734079994,40.19331260799997)"><svg viewBox="0 0 395.52000000000004 61.96479999999999" height="61.96479999999999" width="395.52000000000004"><g id="textblocktransform"><svg viewBox="0 0 395.52000000000004 61.96479999999999" height="61.96479999999999" width="395.52000000000004" id="textblock"><g><svg viewBox="0 0 395.52000000000004 61.96479999999999" height="61.96479999999999" width="395.52000000000004"><g transform="matrix(1,0,0,1,0,0)"><svg width="395.52000000000004" viewBox="2.35 -36 299.96999999999997 47" height="61.96479999999999" data-palette-color="#ffffff"><path d="M19.05 0.6L19.05 0.6Q13.9 0.6 10.18-1.68 6.45-3.95 4.4-8.03 2.35-12.1 2.35-17.5L2.35-17.5Q2.35-22.85 4.4-26.93 6.45-31 10.18-33.3 13.9-35.6 19.05-35.6L19.05-35.6Q25.05-35.6 28.83-32.73 32.6-29.85 33.65-24.7L33.65-24.7 29-24.7Q28.2-27.95 25.73-29.93 23.25-31.9 19.05-31.9L19.05-31.9Q15.3-31.9 12.5-30.18 9.7-28.45 8.18-25.23 6.65-22 6.65-17.5L6.65-17.5Q6.65-13 8.18-9.78 9.7-6.55 12.5-4.83 15.3-3.1 19.05-3.1L19.05-3.1Q23.25-3.1 25.73-5.03 28.2-6.95 29-10.15L29-10.15 33.65-10.15Q32.6-5.1 28.83-2.25 25.05 0.6 19.05 0.6ZM47.7 0.6L47.7 0.6Q44.6 0.6 42.55-0.45 40.5-1.5 39.5-3.25 38.5-5 38.5-7.05L38.5-7.05Q38.5-10.85 41.4-12.9 44.3-14.95 49.3-14.95L49.3-14.95 56-14.95 56-15.25Q56-18.5 54.3-20.18 52.6-21.85 49.75-21.85L49.75-21.85Q47.3-21.85 45.52-20.63 43.75-19.4 43.3-17.05L43.3-17.05 39-17.05Q39.25-19.75 40.82-21.6 42.4-23.45 44.75-24.43 47.1-25.4 49.75-25.4L49.75-25.4Q54.95-25.4 57.57-22.63 60.2-19.85 60.2-15.25L60.2-15.25 60.2 0 56.45 0 56.2-4.45Q55.15-2.35 53.12-0.88 51.1 0.6 47.7 0.6ZM48.35-2.95L48.35-2.95Q50.75-2.95 52.47-4.2 54.2-5.45 55.1-7.45 56-9.45 56-11.65L56-11.65 56-11.7 49.65-11.7Q45.95-11.7 44.42-10.43 42.9-9.15 42.9-7.25L42.9-7.25Q42.9-5.3 44.32-4.13 45.75-2.95 48.35-2.95ZM70.7 11L66.5 11 66.5-24.8 70.3-24.8 70.7-20.7Q71.89-22.5 74.12-23.95 76.34-25.4 79.8-25.4L79.8-25.4Q83.5-25.4 86.25-23.7 89-22 90.52-19.05 92.05-16.1 92.05-12.35L92.05-12.35Q92.05-8.6 90.52-5.68 89-2.75 86.22-1.07 83.45 0.6 79.75 0.6L79.75 0.6Q76.7 0.6 74.32-0.65 71.95-1.9 70.7-4.15L70.7-4.15 70.7 11ZM79.3-3.05L79.3-3.05Q81.8-3.05 83.7-4.23 85.59-5.4 86.7-7.5 87.8-9.6 87.8-12.4L87.8-12.4Q87.8-15.2 86.7-17.3 85.59-19.4 83.7-20.58 81.8-21.75 79.3-21.75L79.3-21.75Q76.8-21.75 74.9-20.58 73-19.4 71.89-17.3 70.8-15.2 70.8-12.4L70.8-12.4Q70.8-9.6 71.89-7.5 73-5.4 74.9-4.23 76.8-3.05 79.3-3.05ZM110.49 0L106.69 0Q103.29 0 101.34-1.65 99.39-3.3 99.39-7.6L99.39-7.6 99.39-21.25 95.09-21.25 95.09-24.8 99.39-24.8 99.94-30.75 103.59-30.75 103.59-24.8 110.89-24.8 110.89-21.25 103.59-21.25 103.59-7.6Q103.59-5.25 104.54-4.42 105.49-3.6 107.89-3.6L107.89-3.6 110.49-3.6 110.49 0ZM125.29 0.6L125.29 0.6Q120.89 0.6 118.29-2.08 115.69-4.75 115.69-10.3L115.69-10.3 115.69-24.8 119.89-24.8 119.89-10.75Q119.89-3 126.24-3L126.24-3Q129.49-3 131.62-5.33 133.74-7.65 133.74-11.95L133.74-11.95 133.74-24.8 137.94-24.8 137.94 0 134.14 0 133.84-4.45Q132.69-2.1 130.42-0.75 128.14 0.6 125.29 0.6ZM149.04 0L144.84 0 144.84-24.8 148.64-24.8 148.99-20.05Q150.14-22.5 152.49-23.95 154.84-25.4 158.29-25.4L158.29-25.4 158.29-21 157.14-21Q154.94-21 153.09-20.23 151.24-19.45 150.14-17.6 149.04-15.75 149.04-12.5L149.04-12.5 149.04 0ZM173.19 0.6L173.19 0.6Q169.64 0.6 166.89-1.03 164.14-2.65 162.56-5.55 160.99-8.45 160.99-12.4L160.99-12.4Q160.99-16.3 162.54-19.23 164.09-22.15 166.86-23.78 169.64-25.4 173.29-25.4L173.29-25.4Q176.89-25.4 179.51-23.78 182.14-22.15 183.54-19.5 184.94-16.85 184.94-13.8L184.94-13.8Q184.94-13.25 184.91-12.7 184.89-12.15 184.89-11.45L184.89-11.45 165.14-11.45Q165.29-8.6 166.46-6.73 167.64-4.85 169.41-3.9 171.19-2.95 173.19-2.95L173.19-2.95Q175.79-2.95 177.54-4.15 179.29-5.35 180.09-7.4L180.09-7.4 184.24-7.4Q183.24-3.95 180.41-1.68 177.59 0.6 173.19 0.6ZM173.19-21.85L173.19-21.85Q170.19-21.85 167.86-20.03 165.54-18.2 165.19-14.7L165.19-14.7 180.79-14.7Q180.64-18.05 178.49-19.95 176.34-21.85 173.19-21.85ZM206.08 0.6L206.08 0.6Q200.93 0.6 197.21-1.68 193.48-3.95 191.43-8.03 189.38-12.1 189.38-17.5L189.38-17.5Q189.38-22.85 191.43-26.93 193.48-31 197.21-33.3 200.93-35.6 206.08-35.6L206.08-35.6Q212.08-35.6 215.86-32.73 219.63-29.85 220.68-24.7L220.68-24.7 216.03-24.7Q215.23-27.95 212.76-29.93 210.28-31.9 206.08-31.9L206.08-31.9Q202.33-31.9 199.53-30.18 196.73-28.45 195.21-25.23 193.68-22 193.68-17.5L193.68-17.5Q193.68-13 195.21-9.78 196.73-6.55 199.53-4.83 202.33-3.1 206.08-3.1L206.08-3.1Q210.28-3.1 212.76-5.03 215.23-6.95 216.03-10.15L216.03-10.15 220.68-10.15Q219.63-5.1 215.86-2.25 212.08 0.6 206.08 0.6ZM230.68 0L226.48 0 226.48-24.8 230.28-24.8 230.63-20.05Q231.78-22.5 234.13-23.95 236.48-25.4 239.93-25.4L239.93-25.4 239.93-21 238.78-21Q236.58-21 234.73-20.23 232.88-19.45 231.78-17.6 230.68-15.75 230.68-12.5L230.68-12.5 230.68 0ZM252.88 0.6L252.88 0.6Q249.78 0.6 247.73-0.45 245.68-1.5 244.68-3.25 243.68-5 243.68-7.05L243.68-7.05Q243.68-10.85 246.58-12.9 249.48-14.95 254.48-14.95L254.48-14.95 261.18-14.95 261.18-15.25Q261.18-18.5 259.48-20.18 257.78-21.85 254.93-21.85L254.93-21.85Q252.48-21.85 250.7-20.63 248.93-19.4 248.48-17.05L248.48-17.05 244.18-17.05Q244.43-19.75 246-21.6 247.58-23.45 249.93-24.43 252.28-25.4 254.93-25.4L254.93-25.4Q260.13-25.4 262.75-22.63 265.38-19.85 265.38-15.25L265.38-15.25 265.38 0 261.63 0 261.38-4.45Q260.33-2.35 258.3-0.88 256.28 0.6 252.88 0.6ZM253.53-2.95L253.53-2.95Q255.93-2.95 257.65-4.2 259.38-5.45 260.28-7.45 261.18-9.45 261.18-11.65L261.18-11.65 261.18-11.7 254.83-11.7Q251.13-11.7 249.6-10.43 248.08-9.15 248.08-7.25L248.08-7.25Q248.08-5.3 249.5-4.13 250.93-2.95 253.53-2.95ZM277.23 0L273.03 0 273.03-21.25 269.28-21.25 269.28-24.8 273.03-24.8 273.03-29.1Q273.03-32.7 274.83-34.35 276.63-36 280.08-36L280.08-36 282.58-36 282.58-32.4 280.73-32.4Q278.83-32.4 278.03-31.63 277.23-30.85 277.23-29L277.23-29 277.23-24.8 283.33-24.8 283.33-21.25 277.23-21.25 277.23 0ZM301.92 0L298.12 0Q294.72 0 292.77-1.65 290.82-3.3 290.82-7.6L290.82-7.6 290.82-21.25 286.52-21.25 286.52-24.8 290.82-24.8 291.37-30.75 295.02-30.75 295.02-24.8 302.32-24.8 302.32-21.25 295.02-21.25 295.02-7.6Q295.02-5.25 295.97-4.42 296.92-3.6 299.32-3.6L299.32-3.6 301.92-3.6 301.92 0Z" opacity="1" transform="matrix(1,0,0,1,0,0)" fill="#000000" class="wordmark-text-0" data-fill-palette-color="primary" id="text-0"></path></svg></g></svg></g></svg></g></svg></g><g><svg viewBox="0 0 142.35142521599994 142.35142521599994" height="142.35142521599994" width="142.35142521599994"><g><svg></svg></g><g id="icon-0"><svg viewBox="0 0 142.35142521599994 142.35142521599994" height="142.35142521599994" width="142.35142521599994"><g><rect width="129.43435144639994" height="129.43435144639994" x="6.458536884799997" y="6.458536884799997" fill="#000000" data-fill-palette-color="accent"></rect><rect width="129.43435144639994" height="129.43435144639994" x="12.917073769599995" y="0" fill="#000000" opacity="0.5" data-fill-palette-color="accent"></rect></g><g transform="matrix(1,0,0,1,18.452962527999986,29.43686879466665)"><svg viewBox="0 0 105.44550015999997 83.47768762666664" height="83.47768762666664" width="105.44550015999997"><g><svg xmlns="http://www.w3.org/2000/svg" xmlns:xlink="http://www.w3.org/1999/xlink" version="1.1" x="0" y="0" viewBox="2 7 48 38" style="enable-background:new 0 0 52 52;" xml:space="preserve" height="83.47768762666664" width="105.44550015999997" class="icon-cg-0" data-fill-palette-color="quaternary" id="cg-0"><g fill="#046380" data-fill-palette-color="quaternary"><path d="M47 12h-3.3l-1.7-4.4C41.8 7.2 41.4 7 41 7H31c-0.4 0-0.8 0.2-0.9 0.6L28.3 12H14c-0.2-1 0.7-4-1.5-4C11.2 8.2 8 7.3 8 9.5V12H5c-1.7 0-3 1.3-3 3 0 6.8 0 14 0 27 0 1.7 1.3 3 3 3h42c1.7 0 3-1.3 3-3 0-10.6 0-19.5 0-27C50 13.3 48.7 12 47 12zM31.7 9h8.6l1.2 3h-11L31.7 9zM10 10h2v2h-2V10zM36 18c4.4 0 8 3.6 8 8 0 6.8-7.9 10.4-13 6.2C25 27.4 28.6 18 36 18zM28 32H4V20h24C25.4 23.5 25.3 28.4 28 32zM47 43H5c-1.5 0-0.9-2.1-1-3h44C47.9 40.9 48.5 43 47 43zM4 38v-4h26c6.6 4.9 16 0.2 16-8 0-8.2-9.4-12.9-16-8H4c0.2-1.7-0.6-4 1-4 13.5 0 24.5 0 38 0 2.5 0.2 5-0.6 5 1v23H4z" fill="#ffffff" data-fill-palette-color="quaternary"></path><path d="M36 31c2.8 0 5-2.2 5-5s-2.2-5-5-5-5 2.2-5 5S33.2 31 36 31zM39 26c0 4-6 4-6 0C33 22 39 22 39 26z" fill="#ffffff" data-fill-palette-color="quaternary"></path></g></svg></g></svg></g></svg></g></svg></g></svg></g><defs></defs></svg><rect width="395.52" height="101.90561682601732" fill="none" stroke="none" visibility="hidden"></rect></g></svg></g></svg>